<?xml version="1.0" encoding="UTF-8" standalone="no"?>
<!-- Created with Inkscape (http://www.inkscape.org/) -->

<svg
   width="128"
   height="128"
   viewBox="0 0 33.866666 33.866666"
   version="1.1"
   id="svg1"
   xml:space="preserve"
   inkscape:version="1.4.2 (f4327f4, 2025-05-13)"
   sodipodi:docname="cherry.svg"
   xmlns:inkscape="http://www.inkscape.org/namespaces/inkscape"
   xmlns:sodipodi="http://sodipodi.sourceforge.net/DTD/sodipodi-0.dtd"
   xmlns="http://www.w3.org/2000/svg"
   xmlns:svg="http://www.w3.org/2000/svg"><sodipodi:namedview
     id="namedview1"
     pagecolor="#ffffff"
     bordercolor="#111111"
     borderopacity="1"
     inkscape:showpageshadow="0"
     inkscape:pageopacity="0"
     inkscape:pagecheckerboard="1"
     inkscape:deskcolor="#d1d1d1"
     inkscape:document-units="mm"
     inkscape:zoom="5.6568543"
     inkscape:cx="44.724504"
     inkscape:cy="66.379649"
     inkscape:window-width="2560"
     inkscape:window-height="1369"
     inkscape:window-x="-8"
     inkscape:window-y="-8"
     inkscape:window-maximized="1"
     inkscape:current-layer="layer2" /><defs
     id="defs1"><clipPath
       clipPathUnits="userSpaceOnUse"
       id="clipPath7"><rect
         style="fill:#aac400;fill-opacity:1;stroke-width:0.264583"
         id="rect8"
         width="7.3645568"
         height="5.4080977"
         x="7.5395241"
         y="28.07439" /></clipPath><clipPath
       clipPathUnits="userSpaceOnUse"
       id="clipPath8"><path
         style="display:inline;fill:#bb9b7a;fill-opacity:1;stroke-width:0.264583"
         d="m 16.097043,10.323104 c 0,0 1.20887,-1.2088688 2.179146,-1.2565875 0.970276,-0.047718 3.276671,0.6998716 3.40392,4.7877575 0.127249,4.087885 -0.874839,7.110057 -0.874839,7.110057 0,0 -0.429467,2.465457 -2.910829,3.467545 -2.481363,1.002089 -0.843027,-1.192962 -0.843027,-1.192962 l 2.035989,-1.224776 c 0,0 1.097526,-1.972364 1.399744,-5.837564 0.15091,-1.960884 0.21819,-4.929161 -1.526994,-6.076156 -0.632995,-0.4160274 -2.24277,0.365842 -2.24277,0.365842 z"
         id="path9"
         sodipodi:nodetypes="csscsccsacc"
         inkscape:label="backshell" /></clipPath></defs><g
     inkscape:groupmode="layer"
     id="layer2"
     inkscape:label="Layer 2"
     style="display:inline"><path
       id="path14"
       style="baseline-shift:baseline;display:inline;overflow:visible;vector-effect:none;fill:#24861b;stroke-width:1.33991;stroke-linecap:round;stroke-linejoin:round;paint-order:stroke fill markers;enable-background:accumulate;stop-color:#000000"
       d="M 19.837549,0.53071696 C 19.336378,0.55104311 18.790346,0.61920677 18.194238,0.74259033 13.744909,1.6635216 14.5868,2.4410226 8.8227173,1.9388997 8.6525968,2.0409722 10.120934,6.9081226 13.938167,6.6011475 16.5501,6.3911005 17.987076,5.1329006 19.828247,5.4038045 17.201538,6.3652486 13.778542,7.9193227 10.745597,10.258289 4.4466403,15.115961 4.9485352,23.468852 4.9485352,23.468852 a 1.5074002,1.5074002 0 0 0 1.5781982,1.431954 1.5074002,1.5074002 0 0 0 1.4314372,-1.580782 c 0,0 -0.2553869,-6.904911 4.6296914,-10.672217 3.135207,-2.417829 6.37024,-3.7288857 8.876978,-4.5666465 -0.06324,0.1749643 -0.147514,0.2625967 -0.204122,0.4475179 -0.717337,2.3432986 -0.794975,5.6863226 1.580782,8.7720746 2.031267,2.638313 2.47174,4.660304 2.496488,5.990332 0.02475,1.330028 -0.301273,1.839681 -0.301273,1.839681 a 1.5074002,1.5074002 0 0 0 0.591695,2.04897 1.5074002,1.5074002 0 0 0 2.04897,-0.593762 c 0,0 0.712272,-1.371294 0.675411,-3.35225 -0.03686,-1.980955 -0.758363,-4.698907 -3.124874,-7.772652 -1.747173,-2.269316 -1.609789,-4.327819 -1.083138,-6.0482099 0.52665,-1.7203912 1.473296,-2.8706258 1.473296,-2.8706258 a 1.507551,1.507551 0 0 0 0.10697,-1.7859375 C 24.665656,2.5988499 23.345747,0.3884339 19.837549,0.53071696 Z" /><path
       style="fill:#9e1d2e;fill-opacity:1;stroke:none;stroke-width:3.08413;stroke-linejoin:bevel;stroke-dasharray:none;paint-order:markers stroke fill"
       d="m 6.8525297,33.152041 c 3.109679,0.04297 6.8838303,-1.359917 6.8881473,-6.292929 0.0032,-3.638917 -2.221579,-5.208297 -3.70135,-5.18453 -1.5963232,0.02563 -1.8296513,0.728148 -3.3375915,0.764535 -1.5921146,0.03842 -1.4820664,-0.782124 -2.7291584,-0.800919 -1.1773592,-0.01774 -3.75974609,1.146577 -3.84352056,5.021587 -0.0908701,4.203244 3.60831656,6.449214 6.72347316,6.492256 z"
       id="path12"
       sodipodi:nodetypes="asssssa" /><path
       style="fill:#9e1d2e;fill-opacity:1;stroke:none;stroke-width:3.08413;stroke-linejoin:bevel;stroke-dasharray:none;paint-order:markers stroke fill"
       d="m 26.851101,33.341601 c 3.109679,0.04297 6.88383,-1.359917 6.888147,-6.292929 0.0032,-3.638917 -2.221578,-5.208297 -3.701349,-5.18453 -1.596324,0.02563 -1.829652,0.728148 -3.337592,0.764535 -1.592115,0.03842 -1.482067,-0.782124 -2.729158,-0.800919 -1.17736,-0.01774 -3.759747,1.146577 -3.843521,5.021587 -0.09087,4.203244 3.608317,6.449214 6.723473,6.492256 z"
       id="path13"
       sodipodi:nodetypes="asssssa" /></g></svg>
