<?xml version="1.0" encoding="UTF-8" standalone="no"?>
<!-- Created with Inkscape (http://www.inkscape.org/) -->

<svg
   width="128"
   height="128"
   viewBox="0 0 33.866666 33.866666"
   version="1.1"
   id="svg1"
   xml:space="preserve"
   inkscape:version="1.4.2 (f4327f4, 2025-05-13)"
   sodipodi:docname="cherry.svg"
   xmlns:inkscape="http://www.inkscape.org/namespaces/inkscape"
   xmlns:sodipodi="http://sodipodi.sourceforge.net/DTD/sodipodi-0.dtd"
   xmlns="http://www.w3.org/2000/svg"
   xmlns:svg="http://www.w3.org/2000/svg"><sodipodi:namedview
     id="namedview1"
     pagecolor="#ffffff"
     bordercolor="#111111"
     borderopacity="1"
     inkscape:showpageshadow="0"
     inkscape:pageopacity="0"
     inkscape:pagecheckerboard="1"
     inkscape:deskcolor="#d1d1d1"
     inkscape:document-units="mm"
     inkscape:zoom="5.6568543"
     inkscape:cx="61.606678"
     inkscape:cy="70.445512"
     inkscape:window-width="2560"
     inkscape:window-height="1369"
     inkscape:window-x="-8"
     inkscape:window-y="-8"
     inkscape:window-maximized="1"
     inkscape:current-layer="layer2" /><defs
     id="defs1"><clipPath
       clipPathUnits="userSpaceOnUse"
       id="clipPath7"><rect
         style="fill:#aac400;fill-opacity:1;stroke-width:0.264583"
         id="rect8"
         width="7.3645568"
         height="5.4080977"
         x="7.5395241"
         y="28.07439" /></clipPath><clipPath
       clipPathUnits="userSpaceOnUse"
       id="clipPath8"><path
         style="display:inline;fill:#bb9b7a;fill-opacity:1;stroke-width:0.264583"
         d="m 16.097043,10.323104 c 0,0 1.20887,-1.2088688 2.179146,-1.2565875 0.970276,-0.047718 3.276671,0.6998716 3.40392,4.7877575 0.127249,4.087885 -0.874839,7.110057 -0.874839,7.110057 0,0 -0.429467,2.465457 -2.910829,3.467545 -2.481363,1.002089 -0.843027,-1.192962 -0.843027,-1.192962 l 2.035989,-1.224776 c 0,0 1.097526,-1.972364 1.399744,-5.837564 0.15091,-1.960884 0.21819,-4.929161 -1.526994,-6.076156 -0.632995,-0.4160274 -2.24277,0.365842 -2.24277,0.365842 z"
         id="path9"
         sodipodi:nodetypes="csscsccsacc"
         inkscape:label="backshell" /></clipPath></defs><g
     inkscape:groupmode="layer"
     id="layer2"
     inkscape:label="Layer 2"
     style="display:inline"><path
       id="path14"
       style="baseline-shift:baseline;display:inline;overflow:visible;vector-effect:none;fill:#24861b;stroke-width:1.4885;stroke-linecap:round;stroke-linejoin:round;paint-order:stroke fill markers;enable-background:accumulate;stop-color:#000000"
       d="m 20.808917,0.43789587 c -0.55675,0.0225802 -1.163336,0.0983034 -1.825551,0.23536971 C 14.040614,1.6963265 14.975869,2.5600511 8.5725597,2.0022436 8.3835732,2.1156358 10.014746,7.5225445 14.255304,7.1815264 c 2.901591,-0.2333408 5.894071,-1.7412947 7.939424,-1.440348 -2.918006,1.0680665 -7.051272,3.2721127 -10.420565,5.8704676 -6.9975008,5.396379 -2.68979,12.098075 -2.68979,12.098075 0.045193,0.923258 -0.5294759,1.378092 0.3938138,1.333571 0.9242062,-0.04548 0.7545702,-1.052359 0.7084052,-1.976531 0,0 -3.6664588,-6.158616 1.760366,-10.34371 3.482896,-2.685964 9.758756,-6.6407781 13.094595,-6.8733729 -0.07025,0.1943676 -1.78046,3.4881541 -1.843346,3.6935823 -1.568442,2.4194636 -3.122786,4.3098806 -0.483561,7.7378376 2.25653,2.930897 2.122341,4.018804 2.149833,5.496329 0.02749,1.477526 -1.547124,2.006958 -1.547124,2.006958 -0.447466,0.81002 -0.153086,1.82942 0.657314,2.276197 0.810622,0.447101 1.830223,0.151635 2.276197,-0.659609 0,0 -0.153337,-1.523096 -0.131464,-3.724009 0.02214,-2.227676 -1.119549,-3.24074 -3.288795,-6.998677 -1.360126,-2.356242 0.05122,-3.892781 1.146616,-5.520193 1.038631,-1.5430815 2.555198,-3.5931215 2.555198,-3.5931215 0.470174,-0.5638053 1.21642,-0.8169893 0.816905,-1.4328852 C 26.172452,2.7353811 24.706168,0.27983385 20.808917,0.43789587 Z"
       sodipodi:nodetypes="sscscscccsccsscccsssccs" /><path
       style="fill:#9e1d2e;fill-opacity:1;stroke:none;stroke-width:3.42615;stroke-linejoin:bevel;stroke-dasharray:none;paint-order:markers stroke fill"
       d="m 9.1787817,33.695206 c 3.4545373,0.04774 7.6472353,-1.51073 7.6520313,-6.990805 0.0035,-4.042466 -2.467948,-5.785887 -4.111823,-5.759485 -1.773353,0.02847 -2.032556,0.808899 -3.7077253,0.849321 -1.7686773,0.04268 -1.6464249,-0.86886 -3.0318173,-0.88974 -1.3079262,-0.0197 -4.1766953,1.273731 -4.26976,5.578473 -0.1009471,4.669376 4.0084723,7.16442 7.4690943,7.212236 z"
       id="path12"
       sodipodi:nodetypes="asssssa" /><path
       style="fill:#9e1d2e;fill-opacity:1;stroke:none;stroke-width:3.42615;stroke-linejoin:bevel;stroke-dasharray:none;paint-order:markers stroke fill"
       d="m 25.039029,33.50164 c 3.454537,0.04774 7.647235,-1.510729 7.65203,-6.990803 0.0035,-4.042467 -2.467947,-5.785889 -4.111822,-5.759486 -1.773354,0.02847 -2.032558,0.808898 -3.707725,0.849321 -1.768678,0.04268 -1.646425,-0.86886 -3.031817,-0.889739 -1.307927,-0.0197 -4.176696,1.27373 -4.269761,5.578472 -0.100946,4.669376 4.008473,7.16442 7.469095,7.212235 z"
       id="path13"
       sodipodi:nodetypes="asssssa" /></g></svg>
