<?xml version="1.0" encoding="UTF-8" standalone="no"?>
<!-- Created with Inkscape (http://www.inkscape.org/) -->

<svg
   width="128"
   height="128"
   viewBox="0 0 33.866666 33.866666"
   version="1.1"
   id="svg1"
   xml:space="preserve"
   inkscape:version="1.4.2 (f4327f4, 2025-05-13)"
   sodipodi:docname="cherry.svg"
   xmlns:inkscape="http://www.inkscape.org/namespaces/inkscape"
   xmlns:sodipodi="http://sodipodi.sourceforge.net/DTD/sodipodi-0.dtd"
   xmlns="http://www.w3.org/2000/svg"
   xmlns:svg="http://www.w3.org/2000/svg"><sodipodi:namedview
     id="namedview1"
     pagecolor="#ffffff"
     bordercolor="#111111"
     borderopacity="1"
     inkscape:showpageshadow="0"
     inkscape:pageopacity="0"
     inkscape:pagecheckerboard="1"
     inkscape:deskcolor="#d1d1d1"
     inkscape:document-units="mm"
     inkscape:zoom="5.6650486"
     inkscape:cx="24.271636"
     inkscape:cy="66.283633"
     inkscape:window-width="2560"
     inkscape:window-height="1369"
     inkscape:window-x="-8"
     inkscape:window-y="-8"
     inkscape:window-maximized="1"
     inkscape:current-layer="layer2" /><defs
     id="defs1"><clipPath
       clipPathUnits="userSpaceOnUse"
       id="clipPath7"><rect
         style="fill:#aac400;fill-opacity:1;stroke-width:0.264583"
         id="rect8"
         width="7.3645568"
         height="5.4080977"
         x="7.5395241"
         y="28.07439" /></clipPath><clipPath
       clipPathUnits="userSpaceOnUse"
       id="clipPath8"><path
         style="display:inline;fill:#bb9b7a;fill-opacity:1;stroke-width:0.264583"
         d="m 16.097043,10.323104 c 0,0 1.20887,-1.2088688 2.179146,-1.2565875 0.970276,-0.047718 3.276671,0.6998716 3.40392,4.7877575 0.127249,4.087885 -0.874839,7.110057 -0.874839,7.110057 0,0 -0.429467,2.465457 -2.910829,3.467545 -2.481363,1.002089 -0.843027,-1.192962 -0.843027,-1.192962 l 2.035989,-1.224776 c 0,0 1.097526,-1.972364 1.399744,-5.837564 0.15091,-1.960884 0.21819,-4.929161 -1.526994,-6.076156 -0.632995,-0.4160274 -2.24277,0.365842 -2.24277,0.365842 z"
         id="path9"
         sodipodi:nodetypes="csscsccsacc"
         inkscape:label="backshell" /></clipPath></defs><g
     inkscape:groupmode="layer"
     id="layer2"
     inkscape:label="Layer 2"
     style="display:inline"><path
       style="fill:#357f07;fill-opacity:1;stroke-width:3.6337;stroke-linecap:round;stroke-linejoin:round;paint-order:stroke fill markers"
       d="M 24.331794,20.619299 C 24.307971,20.452562 24.153147,14.021277 23.867313,12.461095 23.581479,10.900911 23.545749,9.5074672 22.854981,7.2922464 22.164214,5.0770267 20.854137,1.8613832 20.353927,1.1110667 19.853714,0.36075008 19.663158,0.26547199 19.56788,0.25356201 c -0.09529,-0.0119154 -0.607399,0.1429171 -0.607399,0.1429171 0,0 -2.679702,-0.42875207 -4.358984,0.26201563 C 12.922219,1.3492623 12.159992,2.4568725 11.838427,3.4453853 11.516864,4.4338976 10.51644,7.1850583 9.9328616,8.3998569 9.3492822,9.6146545 8.9205294,10.257785 8.9205294,10.257785 c 0,0 2.6082436,-0.3692034 4.4304406,-1.607823 1.822198,-1.2386177 2.477237,-2.2033103 3.036997,-3.0846347 0.559758,-0.8813242 2.453415,-4.4066218 2.453415,-4.4066218 0,0 -0.381112,2.4534167 -0.797956,4.0255084 -0.416841,1.5720918 -1.369625,4.8949231 -2.894078,7.3959781 -1.524453,2.501057 -4.609087,7.205422 -4.620998,7.276882 -0.01197,0.07146 1.274347,0.476392 1.298168,0.428751 0.02381,-0.04765 0.131008,-0.750315 0.131008,-0.750315 0,0 2.584424,-4.478082 3.108455,-5.561872 0.524031,-1.083791 1.631641,-2.965537 2.78689,-6.3002772 1.155249,-3.3347418 1.405356,-6.3240985 1.405356,-6.3240985 0,0 -0.03573,-0.1905568 0.214377,-0.166737 0.250104,0.02382 0.345384,0.1905568 0.345384,0.1905568 0,0 0.571668,0.3930228 1.726917,3.5014773 1.155251,3.1084544 1.488725,6.1930906 1.631641,7.5031676 0.142925,1.310077 0.500213,4.978289 0.333475,7.002954 -0.166738,2.024665 -0.119095,1.667371 0.01197,1.631642 0.131009,-0.03573 0.726496,-0.01197 0.726496,-0.01197"
       id="path3" /><path
       id="path1"
       style="fill:#7f071c;fill-opacity:1;stroke-width:3.6337;stroke-linecap:round;stroke-linejoin:round;paint-order:stroke fill markers"
       d="m 7.42394,18.83688 c -1.9118386,-0.0074 -4.0039265,0.765396 -4.7521795,3.789071 -2.03656268,8.229707 9.1483985,13.894863 12.9691655,5.490912 2.509861,-5.520557 0.336761,-7.310085 -1.044362,-7.950119 -1.381125,-0.640032 -3.503568,-0.437573 -3.503568,-0.437573 -0.02589,-0.09706 -1.7572169,-0.884885 -3.669056,-0.892291 z m 19.738506,1.180777 c -1.592583,-0.0677 -3.268754,0.654496 -3.268754,0.654496 -1.111637,-0.168428 -6.35586,-0.627391 -6.467439,5.187517 -0.173074,9.019772 12.471762,10.283662 14.249086,2.223648 1.510061,-6.847991 -2.088834,-7.613119 -3.840505,-7.983662 -0.218959,-0.04632 -0.444877,-0.07232 -0.672388,-0.082 z" /></g></svg>
