<?xml version="1.0" encoding="UTF-8" standalone="no"?>
<!-- Created with Inkscape (http://www.inkscape.org/) -->

<svg
   width="128"
   height="128"
   viewBox="0 0 33.866666 33.866666"
   version="1.1"
   id="svg1"
   xml:space="preserve"
   inkscape:version="1.4.2 (f4327f4, 2025-05-13)"
   sodipodi:docname="seed_bag.svg"
   xmlns:inkscape="http://www.inkscape.org/namespaces/inkscape"
   xmlns:sodipodi="http://sodipodi.sourceforge.net/DTD/sodipodi-0.dtd"
   xmlns="http://www.w3.org/2000/svg"
   xmlns:svg="http://www.w3.org/2000/svg"><sodipodi:namedview
     id="namedview1"
     pagecolor="#ffffff"
     bordercolor="#111111"
     borderopacity="1"
     inkscape:showpageshadow="0"
     inkscape:pageopacity="0"
     inkscape:pagecheckerboard="1"
     inkscape:deskcolor="#d1d1d1"
     inkscape:document-units="mm"
     inkscape:zoom="5.6568543"
     inkscape:cx="58.866639"
     inkscape:cy="58.601474"
     inkscape:window-width="2560"
     inkscape:window-height="1369"
     inkscape:window-x="-8"
     inkscape:window-y="-8"
     inkscape:window-maximized="1"
     inkscape:current-layer="layer2" /><defs
     id="defs1"><clipPath
       clipPathUnits="userSpaceOnUse"
       id="clipPath7"><rect
         style="fill:#aac400;fill-opacity:1;stroke-width:0.264583"
         id="rect8"
         width="7.3645568"
         height="5.4080977"
         x="7.5395241"
         y="28.07439" /></clipPath><clipPath
       clipPathUnits="userSpaceOnUse"
       id="clipPath8"><path
         style="display:inline;fill:#bb9b7a;fill-opacity:1;stroke-width:0.264583"
         d="m 16.097043,10.323104 c 0,0 1.20887,-1.2088688 2.179146,-1.2565875 0.970276,-0.047718 3.276671,0.6998716 3.40392,4.7877575 0.127249,4.087885 -0.874839,7.110057 -0.874839,7.110057 0,0 -0.429467,2.465457 -2.910829,3.467545 -2.481363,1.002089 -0.843027,-1.192962 -0.843027,-1.192962 l 2.035989,-1.224776 c 0,0 1.097526,-1.972364 1.399744,-5.837564 0.15091,-1.960884 0.21819,-4.929161 -1.526994,-6.076156 -0.632995,-0.4160274 -2.24277,0.365842 -2.24277,0.365842 z"
         id="path9"
         sodipodi:nodetypes="csscsccsacc"
         inkscape:label="backshell" /></clipPath><clipPath
       clipPathUnits="userSpaceOnUse"
       id="clipPath18"><path
         style="fill:#f0da9e;fill-opacity:1;stroke:none;stroke-width:1.34;stroke-linecap:round;stroke-linejoin:round;stroke-dasharray:none;stroke-opacity:1;paint-order:stroke fill markers"
         d="M 10.517187,12.203906 8.7643229,22.688021 c 0,0 -0.3382057,1.629846 -0.1693775,2.204536 0.2298488,0.782401 1.3172424,0.989837 1.3172424,0.989837 l 12.3375752,1.525368 c 0,0 2.926751,0.413898 2.695241,-2.430374 -0.07026,-0.863239 -0.16304,-1.901942 -0.3446,-3.904234 -0.181561,-2.002292 -0.754831,-8.108571 -0.754831,-8.108571 0,0 1.024784,0.08774 1.02526,-0.909505 5.07e-4,-1.064511 -0.909505,-1.339453 -0.909505,-1.339453 L 10.384895,9.7234372 c 0,0 -0.8433588,0.4960938 -0.8268221,0.9921878 0.03636,1.0908 0.9591141,1.488281 0.9591141,1.488281 z"
         id="path19"
         sodipodi:nodetypes="ccsccsscsccsc" /></clipPath></defs><g
     inkscape:groupmode="layer"
     id="layer2"
     inkscape:label="Layer 2"
     style="display:inline"><path
       style="fill:#f0da9e;fill-opacity:1;stroke:none;stroke-width:2.51877;stroke-linecap:round;stroke-linejoin:round;stroke-dasharray:none;stroke-opacity:1;paint-order:stroke fill markers"
       d="M 5.1400179,5.1718192 1.845186,24.878649 c 0,0 -0.6357201,3.063596 -0.318376,4.143833 0.432043,1.470667 2.4759997,1.860581 2.4759997,1.860581 L 27.19356,33.750272 c 0,0 5.50137,0.777997 5.066204,-4.568334 C 32.127698,27.559321 31.9533,25.606886 31.612025,21.843209 31.270747,18.079531 30.19318,6.6016522 30.19318,6.6016522 c 0,0 1.926271,0.1649235 1.927165,-1.7095826 9.54e-4,-2.000945 -1.709582,-2.5177493 -1.709582,-2.5177493 L 4.8913512,0.50932037 c 0,0 -1.5852487,0.93249973 -1.5541658,1.86499993 0.068347,2.0503601 1.8028325,2.7974989 1.8028325,2.7974989 z"
       id="path16"
       sodipodi:nodetypes="ccsccsscsccsc" /><path
       id="path17"
       style="fill:#c5996c;fill-opacity:1;stroke:none;stroke-width:1.34;stroke-linecap:round;stroke-linejoin:round;stroke-dasharray:none;stroke-opacity:1;paint-order:stroke fill markers"
       d="m 24.649141,10.593716 c -0.376067,-0.156821 -0.840933,0.107229 -1.169437,0.350836 -0.230072,0.170613 -0.437113,0.432003 -0.48103,0.718366 -0.0498,0.324723 0.275583,0.945191 0.275583,0.945191 L 10.59928,12.065451 23.254981,12.9508 c 0,0 -1.095024,8.217515 -1.595208,12.238153 -0.0503,0.404288 0.0071,0.849353 0.202357,1.205067 0.160851,0.293017 0.743046,0.664577 0.743046,0.664577 L 9.2400318,25.751231 23.362915,27.946615 25.467696,26.122437 24.11119,13.259656 23.918437,13.10566 24.67653,12.89637 25.490951,12.137244 c 0,0 -0.306975,-1.3205 -0.84181,-1.543528 z"
       clip-path="url(#clipPath18)"
       transform="matrix(1.9115744,0,0,1.8770296,-15.293008,-17.694851)"
       sodipodi:nodetypes="aaacccsacccccccca" /><path
       style="fill:#daeceb;fill-opacity:1;stroke:none;stroke-width:2.51877;stroke-linecap:round;stroke-linejoin:round;stroke-dasharray:none;stroke-opacity:1;paint-order:stroke fill markers"
       d="m 4.6248281,13.398875 -1.5825034,9.011484 22.5506903,1.846256 1.055003,-9.275236 z"
       id="path20"
       sodipodi:nodetypes="ccccc" /><path
       style="fill:#417016;fill-opacity:1;stroke:none;stroke-width:2.51877;stroke-linecap:round;stroke-linejoin:round;stroke-dasharray:none;stroke-opacity:1;paint-order:stroke fill markers"
       d="m 11.255061,19.601671 c 0,0 2.072331,-1.054696 3.5422,-0.600144 1.469866,0.45455 2.14256,1.269942 3.941148,1.241792 1.798589,-0.02815 2.347421,-1.892179 2.347421,-1.892179 0,0 -1.36995,0.301106 -3.088994,-1.058788 -3.892079,-3.078772 -7.757768,1.37035 -6.741775,2.309319 z"
       id="path21"
       sodipodi:nodetypes="cssccc" /><path
       style="fill:none;fill-opacity:1;stroke:#13550c;stroke-width:0.563905;stroke-linecap:round;stroke-linejoin:round;stroke-dasharray:none;stroke-opacity:1;paint-order:stroke fill markers"
       d="m 11.130682,20.410248 c 0,0 -0.379582,-1.498291 1.296774,-2.351777 2.527878,-1.287024 4.526081,0.187423 5.567261,0.733116"
       id="path22"
       sodipodi:nodetypes="csc" /></g></svg>
