<?xml version="1.0" encoding="UTF-8" standalone="no"?>
<!-- Created with Inkscape (http://www.inkscape.org/) -->

<svg
   width="128"
   height="128"
   viewBox="0 0 33.866666 33.866666"
   version="1.1"
   id="svg1"
   xml:space="preserve"
   inkscape:version="1.4.2 (f4327f4, 2025-05-13)"
   sodipodi:docname="grape.svg"
   xmlns:inkscape="http://www.inkscape.org/namespaces/inkscape"
   xmlns:sodipodi="http://sodipodi.sourceforge.net/DTD/sodipodi-0.dtd"
   xmlns="http://www.w3.org/2000/svg"
   xmlns:svg="http://www.w3.org/2000/svg"><sodipodi:namedview
     id="namedview1"
     pagecolor="#ffffff"
     bordercolor="#111111"
     borderopacity="1"
     inkscape:showpageshadow="0"
     inkscape:pageopacity="0"
     inkscape:pagecheckerboard="1"
     inkscape:deskcolor="#d1d1d1"
     inkscape:document-units="mm"
     inkscape:zoom="5.2897727"
     inkscape:cx="49.907626"
     inkscape:cy="55.862513"
     inkscape:window-width="2560"
     inkscape:window-height="1369"
     inkscape:window-x="-8"
     inkscape:window-y="-8"
     inkscape:window-maximized="1"
     inkscape:current-layer="layer2" /><defs
     id="defs1"><clipPath
       clipPathUnits="userSpaceOnUse"
       id="clipPath7"><rect
         style="fill:#aac400;fill-opacity:1;stroke-width:0.264583"
         id="rect8"
         width="7.3645568"
         height="5.4080977"
         x="7.5395241"
         y="28.07439" /></clipPath><clipPath
       clipPathUnits="userSpaceOnUse"
       id="clipPath8"><path
         style="display:inline;fill:#bb9b7a;fill-opacity:1;stroke-width:0.264583"
         d="m 16.097043,10.323104 c 0,0 1.20887,-1.2088688 2.179146,-1.2565875 0.970276,-0.047718 3.276671,0.6998716 3.40392,4.7877575 0.127249,4.087885 -0.874839,7.110057 -0.874839,7.110057 0,0 -0.429467,2.465457 -2.910829,3.467545 -2.481363,1.002089 -0.843027,-1.192962 -0.843027,-1.192962 l 2.035989,-1.224776 c 0,0 1.097526,-1.972364 1.399744,-5.837564 0.15091,-1.960884 0.21819,-4.929161 -1.526994,-6.076156 -0.632995,-0.4160274 -2.24277,0.365842 -2.24277,0.365842 z"
         id="path9"
         sodipodi:nodetypes="csscsccsacc"
         inkscape:label="backshell" /></clipPath></defs><g
     inkscape:groupmode="layer"
     id="layer2"
     inkscape:label="Layer 2"
     style="display:inline"><g
       id="g12"
       transform="matrix(2.2091553,0,0,2.2091553,-20.139608,-26.199815)"
       style="stroke-width:0.99993;stroke-dasharray:none"><path
         style="fill:#1c992f;fill-opacity:1;stroke:none;stroke-width:0.99993;stroke-linejoin:bevel;stroke-dasharray:none;paint-order:markers stroke fill"
         d="m 17.810664,15.968354 0.985128,1.112791 2.009474,-1.752893 1.484975,-1.295366 c 0.485886,-0.403663 0.471702,-0.431496 -3.25e-4,-0.898497 l -0.32897,-0.393473 -0.501728,-0.600106 c -0.341463,-0.375298 -0.418347,-0.307496 -0.745157,0.08663 l -1.393606,1.795608 z"
         id="path11"
         sodipodi:nodetypes="cccccccccc" /><path
         style="fill:#6c199a;fill-opacity:1;stroke:none;stroke-width:0.99993;stroke-linejoin:bevel;stroke-dasharray:none;paint-order:markers stroke fill"
         d="m 11.779216,14.255102 -0.200072,1.000358 c 0,0 0.375135,1.050376 0.07503,1.6756 -0.300107,0.625224 -0.925331,2.250805 -0.925331,2.250805 l 0.02501,1.850662 c 0,0 0.125045,0.72526 0.02501,1.175421 -0.100035,0.450161 -0.625224,1.6756 -0.625224,1.6756 L 13.57986,25.9843 c 0,0 0.525188,-0.575206 1.025367,-0.975349 0.500179,-0.400143 1.150411,0.05002 1.150411,0.05002 L 18.181506,23.1833 c 0,0 0.675242,-0.775277 1.050376,-1.250447 0.375135,-0.47517 1.125403,-0.275099 1.125403,-0.275099 l 1.850663,-4.401575 c 0,0 -1.711693,0.233038 -2.375851,-0.350126 -1.025366,-0.900322 -1.17542,-1.075384 -1.17542,-1.075384 L 17.65632,15.530558 c 0,0 -1.34154,-0.738705 -1.450521,-1.150411 -0.22508,-0.850305 -1.125402,-1.125403 -1.125402,-1.125403 l -1.6756,0.725259"
         id="path7"
         sodipodi:nodetypes="ccsccsccsccsccsccscc" /><path
         id="path1"
         style="fill:#872fb8;fill-opacity:1;stroke:none;stroke-width:0.999984;stroke-linejoin:bevel;stroke-dasharray:none;paint-order:markers stroke fill"
         sodipodi:type="inkscape:offset"
         inkscape:radius="0"
         inkscape:original="M 18.75 4.0878906 A 2.1749611 2.5508497 0 0 0 16.574219 6.6386719 A 2.1749611 2.5508497 0 0 0 18.75 9.1894531 A 2.1749611 2.5508497 0 0 0 20.925781 6.6386719 A 2.1749611 2.5508497 0 0 0 18.75 4.0878906 z "
         d="M 18.75,4.0878906 A 2.1749611,2.5508497 0 0 0 16.574219,6.6386719 2.1749611,2.5508497 0 0 0 18.75,9.1894531 2.1749611,2.5508497 0 0 0 20.925781,6.6386719 2.1749611,2.5508497 0 0 0 18.75,4.0878906 Z"
         transform="matrix(0.88901124,0.45788537,-0.47089526,0.88218913,0.3001074,0.40014321)" /><path
         id="path2"
         style="fill:#872fb8;fill-opacity:1;stroke:none;stroke-width:0.999984;stroke-linejoin:bevel;stroke-dasharray:none;paint-order:markers stroke fill"
         sodipodi:type="inkscape:offset"
         inkscape:radius="0"
         inkscape:original="M 18.75 4.0878906 A 2.1749611 2.5508497 0 0 0 16.574219 6.6386719 A 2.1749611 2.5508497 0 0 0 18.75 9.1894531 A 2.1749611 2.5508497 0 0 0 20.925781 6.6386719 A 2.1749611 2.5508497 0 0 0 18.75 4.0878906 z "
         d="M 18.75,4.0878906 A 2.1749611,2.5508497 0 0 0 16.574219,6.6386719 2.1749611,2.5508497 0 0 0 18.75,9.1894531 2.1749611,2.5508497 0 0 0 20.925781,6.6386719 2.1749611,2.5508497 0 0 0 18.75,4.0878906 Z"
         transform="matrix(0.88901124,0.45788537,-0.47089526,0.88218913,-1.4255101,5.3018977)" /><path
         id="path3"
         style="fill:#872fb8;fill-opacity:1;stroke:none;stroke-width:0.999984;stroke-linejoin:bevel;stroke-dasharray:none;paint-order:markers stroke fill"
         sodipodi:type="inkscape:offset"
         inkscape:radius="0"
         inkscape:original="M 18.75 4.0878906 A 2.1749611 2.5508497 0 0 0 16.574219 6.6386719 A 2.1749611 2.5508497 0 0 0 18.75 9.1894531 A 2.1749611 2.5508497 0 0 0 20.925781 6.6386719 A 2.1749611 2.5508497 0 0 0 18.75 4.0878906 z "
         d="M 18.75,4.0878906 A 2.1749611,2.5508497 0 0 0 16.574219,6.6386719 2.1749611,2.5508497 0 0 0 18.75,9.1894531 2.1749611,2.5508497 0 0 0 20.925781,6.6386719 2.1749611,2.5508497 0 0 0 18.75,4.0878906 Z"
         transform="matrix(0.88901124,0.45788537,-0.47089526,0.88218913,-1.4755281,10.25367)" /><path
         id="path4"
         style="fill:#872fb8;fill-opacity:1;stroke:none;stroke-width:0.999984;stroke-linejoin:bevel;stroke-dasharray:none;paint-order:markers stroke fill"
         sodipodi:type="inkscape:offset"
         inkscape:radius="0"
         inkscape:original="M 18.75 4.0878906 A 2.1749611 2.5508497 0 0 0 16.574219 6.6386719 A 2.1749611 2.5508497 0 0 0 18.75 9.1894531 A 2.1749611 2.5508497 0 0 0 20.925781 6.6386719 A 2.1749611 2.5508497 0 0 0 18.75 4.0878906 z "
         d="M 18.75,4.0878906 A 2.1749611,2.5508497 0 0 0 16.574219,6.6386719 2.1749611,2.5508497 0 0 0 18.75,9.1894531 2.1749611,2.5508497 0 0 0 20.925781,6.6386719 2.1749611,2.5508497 0 0 0 18.75,4.0878906 Z"
         transform="matrix(0.88901124,0.45788537,-0.47089526,0.88218913,3.1261189,8.2779628)" /><path
         id="path5"
         style="fill:#872fb8;fill-opacity:1;stroke:none;stroke-width:0.999984;stroke-linejoin:bevel;stroke-dasharray:none;paint-order:markers stroke fill"
         sodipodi:type="inkscape:offset"
         inkscape:radius="0"
         inkscape:original="M 18.75 4.0878906 A 2.1749611 2.5508497 0 0 0 16.574219 6.6386719 A 2.1749611 2.5508497 0 0 0 18.75 9.1894531 A 2.1749611 2.5508497 0 0 0 20.925781 6.6386719 A 2.1749611 2.5508497 0 0 0 18.75 4.0878906 z "
         d="M 18.75,4.0878906 A 2.1749611,2.5508497 0 0 0 16.574219,6.6386719 2.1749611,2.5508497 0 0 0 18.75,9.1894531 2.1749611,2.5508497 0 0 0 20.925781,6.6386719 2.1749611,2.5508497 0 0 0 18.75,4.0878906 Z"
         transform="matrix(0.88901124,0.45788537,-0.47089526,0.88218913,3.8513785,3.176137)" /><path
         id="path6"
         style="fill:#872fb8;fill-opacity:1;stroke:none;stroke-width:0.999984;stroke-linejoin:bevel;stroke-dasharray:none;paint-order:markers stroke fill"
         sodipodi:type="inkscape:offset"
         inkscape:radius="0"
         inkscape:original="M 18.75 4.0878906 A 2.1749611 2.5508497 0 0 0 16.574219 6.6386719 A 2.1749611 2.5508497 0 0 0 18.75 9.1894531 A 2.1749611 2.5508497 0 0 0 20.925781 6.6386719 A 2.1749611 2.5508497 0 0 0 18.75 4.0878906 z "
         d="M 18.75,4.0878906 A 2.1749611,2.5508497 0 0 0 16.574219,6.6386719 2.1749611,2.5508497 0 0 0 18.75,9.1894531 2.1749611,2.5508497 0 0 0 20.925781,6.6386719 2.1749611,2.5508497 0 0 0 18.75,4.0878906 Z"
         transform="matrix(0.88901124,0.45788537,-0.47089526,0.88218913,7.9528464,5.1018261)" /><path
         style="fill:#006f11;fill-opacity:1;stroke:none;stroke-width:0.99993;stroke-linejoin:bevel;stroke-dasharray:none;paint-order:markers stroke fill"
         d="m 19.05682,15.680612 c 0.02501,-0.100036 0,0 0,0 z"
         id="path10" /><path
         style="fill:#006f11;fill-opacity:1;stroke:none;stroke-width:0.99993;stroke-linejoin:bevel;stroke-dasharray:none;paint-order:markers stroke fill"
         d="m 23.433387,12.754565 -1.225439,0.07503"
         id="path12" /></g></g></svg>
