<?xml version="1.0" encoding="UTF-8" standalone="no"?>
<!-- Created with Inkscape (http://www.inkscape.org/) -->

<svg
   width="128"
   height="128"
   viewBox="0 0 33.866666 33.866666"
   version="1.1"
   id="svg1"
   xml:space="preserve"
   inkscape:version="1.4.2 (f4327f4, 2025-05-13)"
   sodipodi:docname="pistachio.svg"
   xmlns:inkscape="http://www.inkscape.org/namespaces/inkscape"
   xmlns:sodipodi="http://sodipodi.sourceforge.net/DTD/sodipodi-0.dtd"
   xmlns="http://www.w3.org/2000/svg"
   xmlns:svg="http://www.w3.org/2000/svg"><sodipodi:namedview
     id="namedview1"
     pagecolor="#ffffff"
     bordercolor="#111111"
     borderopacity="1"
     inkscape:showpageshadow="0"
     inkscape:pageopacity="0"
     inkscape:pagecheckerboard="1"
     inkscape:deskcolor="#d1d1d1"
     inkscape:document-units="mm"
     inkscape:zoom="5.6568543"
     inkscape:cx="47.376154"
     inkscape:cy="71.859727"
     inkscape:window-width="2560"
     inkscape:window-height="1369"
     inkscape:window-x="-8"
     inkscape:window-y="-8"
     inkscape:window-maximized="1"
     inkscape:current-layer="layer2" /><defs
     id="defs1"><clipPath
       clipPathUnits="userSpaceOnUse"
       id="clipPath7"><rect
         style="fill:#aac400;fill-opacity:1;stroke-width:0.264583"
         id="rect8"
         width="7.3645568"
         height="5.4080977"
         x="7.5395241"
         y="28.07439" /></clipPath><clipPath
       clipPathUnits="userSpaceOnUse"
       id="clipPath8"><path
         style="display:inline;fill:#bb9b7a;fill-opacity:1;stroke-width:0.264583"
         d="m 16.097043,10.323104 c 0,0 1.20887,-1.2088688 2.179146,-1.2565875 0.970276,-0.047718 3.276671,0.6998716 3.40392,4.7877575 0.127249,4.087885 -0.874839,7.110057 -0.874839,7.110057 0,0 -0.429467,2.465457 -2.910829,3.467545 -2.481363,1.002089 -0.843027,-1.192962 -0.843027,-1.192962 l 2.035989,-1.224776 c 0,0 1.097526,-1.972364 1.399744,-5.837564 0.15091,-1.960884 0.21819,-4.929161 -1.526994,-6.076156 -0.632995,-0.4160274 -2.24277,0.365842 -2.24277,0.365842 z"
         id="path9"
         sodipodi:nodetypes="csscsccsacc"
         inkscape:label="backshell" /></clipPath></defs><g
     inkscape:groupmode="layer"
     id="layer2"
     inkscape:label="Layer 2"
     style="display:inline"><g
       id="g1"
       transform="matrix(3.1234923,0,0,3.1234923,-0.13660057,-44.920456)"><path
         style="display:inline;fill:#ffda4a;fill-opacity:1;stroke-width:0.178431"
         d="m 5.3573328,15.185785 c 0,0 0.844376,-0.896458 2.0136075,-0.274298 1.1692325,0.622161 1.3546388,2.054963 1.3546388,2.054963 0,0 -0.2574456,5.02019 -0.3110802,5.202547 -0.053634,0.182357 -1.4266771,1.179959 -1.4266771,1.179959 0,0 -1.1585057,-0.879606 -1.2443207,-1.07269 C 5.6576862,22.083182 5.4860556,16.96645 5.4538746,16.848455 5.4216942,16.730459 5.2929714,15.647042 5.2929714,15.647042"
         id="path3"
         inkscape:label="nut"
         sodipodi:nodetypes="cscscssc" /><path
         style="display:inline;fill:#c39f4f;fill-opacity:1;stroke-width:0.178431"
         d="m 5.5289627,15.23942 c 0,0 1.0653453,-0.852324 1.719893,-0.82467 0.4950539,0.02092 1.9594341,0.449228 2.0452491,3.206042 0.085815,2.756813 -0.5899793,4.794924 -0.5899793,4.794924 0,0 -0.2896266,1.66267 -1.9630225,2.338464 C 5.0677062,25.429975 6.1725773,23.949663 6.1725773,23.949663 L 7.5456198,23.123691 C 8.2770442,21.738844 8.5586962,18.596048 8.5754027,18.382401 8.6787902,17.060133 8.3355472,15.545781 7.2431106,15.087245 6.8442962,14.919848 6.0438532,15.582681 6.0438532,15.582681 Z"
         id="path2"
         sodipodi:nodetypes="csscsccsacc"
         inkscape:label="backshell" /><path
         style="fill:#e2bf60;fill-opacity:1;stroke-width:0.178431"
         d="M 1.8033004,23.447789 C 1.3633665,22.165914 1.842752,19.652115 2.2584045,18.335456 2.6739808,16.763093 4.1225386,14.052423 5.8175474,14.48189 8.4118641,15.139215 7.8953983,19.913382 7.799274,22.262364 7.6148348,26.550582 2.4994881,25.47634 1.8033004,23.447789 Z"
         id="path1"
         sodipodi:nodetypes="ssass"
         inkscape:label="frontshell" /></g></g></svg>
